<svg xmlns="http://www.w3.org/2000/svg" xmlns:xlink="http://www.w3.org/1999/xlink" viewBox="0 0 496 165.33">
  <defs>
    <linearGradient id="a" x1="75.57" y1="37.23" x2="116.88" y2="61.08" gradientUnits="userSpaceOnUse">
      <stop offset="0" stop-color="#f3b444"/>
      <stop offset="1" stop-color="#f15480"/>
    </linearGradient>
    <linearGradient id="b" x1="116.24" y1="106.5" x2="116.24" y2="60.86" gradientUnits="userSpaceOnUse">
      <stop offset="0" stop-color="#b157ce"/>
      <stop offset="1" stop-color="#f15480"/>
    </linearGradient>
    <linearGradient id="c" x1="76.54" y1="127.51" x2="117.28" y2="103.99" gradientUnits="userSpaceOnUse">
      <stop offset="0" stop-color="#5da5fb"/>
      <stop offset="1" stop-color="#b157ce"/>
    </linearGradient>
    <linearGradient id="d" x1="38.55" y1="103.61" x2="78.31" y2="126.57" gradientUnits="userSpaceOnUse">
      <stop offset="0" stop-color="#74e6a7"/>
      <stop offset="1" stop-color="#5da5fb"/>
    </linearGradient>
    <linearGradient id="e" x1="40.24" y1="59.09" x2="40.24" y2="104.77" gradientUnits="userSpaceOnUse">
      <stop offset="0" stop-color="#c8ed5c"/>
      <stop offset="1" stop-color="#74e6a7"/>
    </linearGradient>
    <linearGradient id="f" x1="40.68" y1="60.46" x2="78.84" y2="38.42" gradientUnits="userSpaceOnUse">
      <stop offset="0" stop-color="#c8ed5c"/>
      <stop offset="1" stop-color="#f3b444"/>
    </linearGradient>
  </defs>
  <g>
    <path d="M144.69,45.81A75.94,75.94,0,0,0,78.24,6.65v76Z" fill="url(#a)"/>
    <path d="M143.37,121.78a76,76,0,0,0,.69-77.13l-65.82,38Z" fill="url(#b)"/>
    <path d="M76.91,158.62a76,76,0,0,0,67.15-38l-65.82-38Z" fill="url(#c)"/>
    <path d="M11.78,119.49a76,76,0,0,0,66.46,39.16v-76Z" fill="url(#d)"/>
    <path d="M13.11,43.52a75.93,75.93,0,0,0-.69,77.13l65.82-38Z" fill="url(#e)"/>
    <path d="M79.56,6.68a76,76,0,0,0-67.14,38l65.82,38Z" fill="url(#f)"/>
  </g>
  <circle cx="78.24" cy="82.65" r="60" fill="#000f33"/>
  <path d="M279.25,77.68q0-9.86-5.25-15.66t-14.27-5.8a21.3,21.3,0,0,0-11.19,3,19.9,19.9,0,0,0-7.65,8.28,26.71,26.71,0,0,0-2.71,12.25q0,10.78,6.17,17t16.85,6.22a28.78,28.78,0,0,0,7.32-1,29.33,29.33,0,0,0,7.05-2.85q3.31-1.85,3.32-4.52a4,4,0,0,0-.83-2.58,2.64,2.64,0,0,0-2.12-1,5,5,0,0,0-2.07.6c-.83.4-1.34.66-1.52.78a45.44,45.44,0,0,1-5.25,2.4,17.12,17.12,0,0,1-5.9.92q-12.8,0-13.72-14.28h28.46Q279.26,81.36,279.25,77.68Zm-31.77-2.29a15.76,15.76,0,0,1,3.87-9A11.22,11.22,0,0,1,259.91,63a10.21,10.21,0,0,1,8.15,3.36,14.89,14.89,0,0,1,3.18,9ZM494,60.55a4.23,4.23,0,0,1-.37,1.75l-27.32,58a4.3,4.3,0,0,1-1.61,2,4.08,4.08,0,0,1-2.26.69,4.61,4.61,0,0,1-3-1.1,3.45,3.45,0,0,1-1.33-2.77,5,5,0,0,1,.46-1.84l8.06-17.18L448.87,62.3a3.62,3.62,0,0,1-.37-1.66,3.67,3.67,0,0,1,1.47-3,5.12,5.12,0,0,1,3.32-1.2,4.08,4.08,0,0,1,4,2.58l14.28,31.69,14.18-31.59a4,4,0,0,1,1.61-2,4.29,4.29,0,0,1,2.26-.65,4.48,4.48,0,0,1,3.08,1.2A3.72,3.72,0,0,1,494,60.55ZM440.6,43.89v57.5a1.34,1.34,0,0,1-1.34,1.34h-6.62a1.34,1.34,0,0,1-1.34-1.34V43.89a4.11,4.11,0,0,1,1.29-3.31,4.89,4.89,0,0,1,3.31-1.11,5.08,5.08,0,0,1,3.36,1.11A4,4,0,0,1,440.6,43.89Zm-20.07,0v57.5a1.34,1.34,0,0,1-1.34,1.34h-6.62a1.34,1.34,0,0,1-1.34-1.34V43.89a4.11,4.11,0,0,1,1.29-3.31,4.89,4.89,0,0,1,3.31-1.11,5.06,5.06,0,0,1,3.36,1.11A4,4,0,0,1,420.53,43.89ZM330,74.36v27.17a1.2,1.2,0,0,1-1.2,1.2h-6.91a1.2,1.2,0,0,1-1.2-1.2V74.82c0-3.8-.75-6.6-2.25-8.38s-3.86-2.67-7-2.67a12.05,12.05,0,0,0-9,3.5q-3.4,3.49-3.4,9.39v24.87a1.2,1.2,0,0,1-1.2,1.2h-6.91a1.2,1.2,0,0,1-1.2-1.2V60.82A4.16,4.16,0,0,1,291,57.64a4.73,4.73,0,0,1,3.36-1.24,4.33,4.33,0,0,1,3.22,1.2,4.23,4.23,0,0,1,1.2,3.13v2a.5.5,0,0,0,.92.28A14.86,14.86,0,0,1,305,58.33a18.67,18.67,0,0,1,8.94-2.11Q330,56.22,330,74.36Zm20.17-16.81a4.28,4.28,0,0,1,1.29,3.36V101.7a1,1,0,0,1-1,1H343.2a1,1,0,0,1-1-1V60.91a4.2,4.2,0,0,1,1.33-3.36,5,5,0,0,1,3.36-1.15A4.84,4.84,0,0,1,350.19,57.55Zm2-15.42a5.39,5.39,0,1,1-5.39-5.39A5.39,5.39,0,0,1,352.22,42.13Zm30.51,14.09a35.05,35.05,0,0,0-8.38,1.06,31.6,31.6,0,0,0-7.55,2.8,8.19,8.19,0,0,0-2.53,2.08,4,4,0,0,0-.79,2.44,3.79,3.79,0,0,0,.88,2.58,2.82,2.82,0,0,0,2.26,1,9.08,9.08,0,0,0,3.5-1.38,44.1,44.1,0,0,1,6.26-2.39,21.42,21.42,0,0,1,6.08-.83c3.13,0,5.4.76,6.81,2.3s2.12,4,2.12,7.46V76h-2.12a84,84,0,0,0-16.07,1.2q-5.85,1.2-8.38,4a11.08,11.08,0,0,0-2.53,7.7,13,13,0,0,0,2.07,7.18,13.91,13.91,0,0,0,5.76,5,18.3,18.3,0,0,0,8.1,1.8,15.38,15.38,0,0,0,8.06-2.08,12.91,12.91,0,0,0,5.2-5.94v6.44a1.39,1.39,0,0,0,1.39,1.39H399a1.39,1.39,0,0,0,1.39-1.39V74.45q0-9.21-4.38-13.72T382.73,56.22Zm8.66,27.44a12.49,12.49,0,0,1-3.22,8.89A10.82,10.82,0,0,1,379.88,96a8.72,8.72,0,0,1-6-2.12,6.92,6.92,0,0,1-2.39-5.44,5.64,5.64,0,0,1,1.65-4.37,10.9,10.9,0,0,1,5.53-2.17,73.12,73.12,0,0,1,11.05-.64h1.66ZM225.8,56.4a4.65,4.65,0,0,0-3.37,1.2,4.29,4.29,0,0,0-1.24,3.22v3.87a14.43,14.43,0,0,0-5.94-6.26,18.06,18.06,0,0,0-9.07-2.21A19.65,19.65,0,0,0,195.72,59a19.33,19.33,0,0,0-7.13,7.88A25.45,25.45,0,0,0,186,78.6a25.83,25.83,0,0,0,2.53,11.7,18.69,18.69,0,0,0,7.14,7.83,20,20,0,0,0,10.5,2.76,18.22,18.22,0,0,0,9.21-2.26,14,14,0,0,0,5.89-6.31v7.09q0,12.81-12.71,12.81a23.12,23.12,0,0,1-6.81-.88,46.17,46.17,0,0,1-6.17-2.44l-.07,0a1.67,1.67,0,0,0-2.3.81l-1.74,3.92a1.68,1.68,0,0,0,.68,2.12h0q6.63,3.78,16.58,3.77,10.68,0,16.16-5.25t5.48-15.56V60.91a4.42,4.42,0,0,0-1.24-3.27A4.54,4.54,0,0,0,225.8,56.4Zm-8,33.16a11.73,11.73,0,0,1-9.39,4,12,12,0,0,1-9.49-4q-3.5-4-3.5-11t3.46-11q3.45-4,9.53-4t9.44,4q3.36,4,3.36,10.91T217.78,89.56Z" fill="#fff"/>
  <g>
    <path d="M116.66,81.75a7.44,7.44,0,0,0-7.3,6A30.29,30.29,0,1,1,89.62,53.12a7.22,7.22,0,0,0,8.68-3.06l.32-.54a7.17,7.17,0,0,0-3.84-10.39A45,45,0,0,0,78,36.55a45.22,45.22,0,1,0,46,54A7.45,7.45,0,0,0,116.66,81.75Z" fill="#fff"/>
    <path d="M90.57,77.24A9.73,9.73,0,1,0,100.3,87,9.73,9.73,0,0,0,90.57,77.24Z" fill="#fff"/>
  </g>
</svg>
